<mxfile host="app.diagrams.net" modified="2023-06-19T19:10:51.714Z" agent="Mozilla/5.0 (Windows NT 10.0; Win64; x64) AppleWebKit/537.36 (KHTML, like Gecko) Chrome/114.0.0.0 Safari/537.36" etag="X-g2JKuG-PXrU_kUO9Lm" version="21.5.0" type="device">
  <diagram id="kgpKYQtTHZ0yAKxKKP6v" name="Page-1">
    <mxGraphModel dx="1562" dy="1969" grid="1" gridSize="10" guides="1" tooltips="1" connect="1" arrows="1" fold="1" page="1" pageScale="1" pageWidth="850" pageHeight="1100" math="0" shadow="0">
      <root>
        <mxCell id="0" />
        <mxCell id="1" parent="0" />
        <mxCell id="naLQoQvjF8YPUEuu64ZZ-8" style="edgeStyle=orthogonalEdgeStyle;rounded=0;orthogonalLoop=1;jettySize=auto;html=1;endArrow=none;endFill=0;dashed=1;entryX=0.5;entryY=1;entryDx=0;entryDy=0;" parent="1" source="naLQoQvjF8YPUEuu64ZZ-2" target="naLQoQvjF8YPUEuu64ZZ-12" edge="1">
          <mxGeometry relative="1" as="geometry">
            <mxPoint x="75" y="140" as="targetPoint" />
          </mxGeometry>
        </mxCell>
        <mxCell id="naLQoQvjF8YPUEuu64ZZ-19" style="edgeStyle=orthogonalEdgeStyle;rounded=0;orthogonalLoop=1;jettySize=auto;html=1;dashed=1;endArrow=none;endFill=0;" parent="1" source="naLQoQvjF8YPUEuu64ZZ-2" target="naLQoQvjF8YPUEuu64ZZ-53" edge="1">
          <mxGeometry relative="1" as="geometry">
            <mxPoint x="75" y="760" as="targetPoint" />
          </mxGeometry>
        </mxCell>
        <mxCell id="naLQoQvjF8YPUEuu64ZZ-2" value="" style="html=1;points=[];perimeter=orthogonalPerimeter;" parent="1" vertex="1">
          <mxGeometry x="70" y="80" width="10" height="60" as="geometry" />
        </mxCell>
        <mxCell id="naLQoQvjF8YPUEuu64ZZ-12" value="&lt;b&gt;ECA desktop&lt;/b&gt;" style="html=1;strokeWidth=2;" parent="1" vertex="1">
          <mxGeometry x="20" y="-30" width="110" height="50" as="geometry" />
        </mxCell>
        <mxCell id="naLQoQvjF8YPUEuu64ZZ-18" style="edgeStyle=orthogonalEdgeStyle;rounded=0;orthogonalLoop=1;jettySize=auto;html=1;entryX=0.5;entryY=1;entryDx=0;entryDy=0;dashed=1;endArrow=none;endFill=0;" parent="1" source="naLQoQvjF8YPUEuu64ZZ-13" target="naLQoQvjF8YPUEuu64ZZ-21" edge="1">
          <mxGeometry relative="1" as="geometry">
            <mxPoint x="325" y="150" as="targetPoint" />
          </mxGeometry>
        </mxCell>
        <mxCell id="naLQoQvjF8YPUEuu64ZZ-13" value="" style="html=1;points=[];perimeter=orthogonalPerimeter;" parent="1" vertex="1">
          <mxGeometry x="320" y="80" width="10" height="80" as="geometry" />
        </mxCell>
        <mxCell id="naLQoQvjF8YPUEuu64ZZ-16" value="&lt;font style=&quot;font-size: 11px&quot;&gt;Отправка запроса в очередь&lt;br&gt;на построение оптимального&lt;br&gt;классификатора&lt;/font&gt;" style="html=1;verticalAlign=bottom;endArrow=block;entryX=-0.1;entryY=0.388;entryDx=0;entryDy=0;entryPerimeter=0;" parent="1" target="naLQoQvjF8YPUEuu64ZZ-13" edge="1">
          <mxGeometry x="-0.0574" y="11" width="80" relative="1" as="geometry">
            <mxPoint x="80" y="111" as="sourcePoint" />
            <mxPoint x="160" y="280" as="targetPoint" />
            <mxPoint as="offset" />
          </mxGeometry>
        </mxCell>
        <mxCell id="naLQoQvjF8YPUEuu64ZZ-21" value="&lt;b&gt;Rabbit MQ&lt;/b&gt;" style="html=1;strokeWidth=2;" parent="1" vertex="1">
          <mxGeometry x="270" y="-30" width="110" height="50" as="geometry" />
        </mxCell>
        <mxCell id="naLQoQvjF8YPUEuu64ZZ-22" value="&lt;b&gt;Eca server&lt;/b&gt;" style="html=1;strokeWidth=2;" parent="1" vertex="1">
          <mxGeometry x="510" y="-30" width="110" height="50" as="geometry" />
        </mxCell>
        <mxCell id="naLQoQvjF8YPUEuu64ZZ-24" value="&lt;b&gt;Eca ers&lt;/b&gt;" style="html=1;strokeWidth=2;" parent="1" vertex="1">
          <mxGeometry x="860" y="-30" width="110" height="50" as="geometry" />
        </mxCell>
        <mxCell id="naLQoQvjF8YPUEuu64ZZ-40" style="edgeStyle=orthogonalEdgeStyle;rounded=0;orthogonalLoop=1;jettySize=auto;html=1;entryX=0.5;entryY=1;entryDx=0;entryDy=0;dashed=1;endArrow=none;endFill=0;strokeColor=#000000;" parent="1" source="naLQoQvjF8YPUEuu64ZZ-25" target="naLQoQvjF8YPUEuu64ZZ-22" edge="1">
          <mxGeometry relative="1" as="geometry" />
        </mxCell>
        <mxCell id="naLQoQvjF8YPUEuu64ZZ-56" style="edgeStyle=orthogonalEdgeStyle;rounded=0;orthogonalLoop=1;jettySize=auto;html=1;dashed=1;endArrow=none;endFill=0;strokeColor=#000000;" parent="1" source="naLQoQvjF8YPUEuu64ZZ-25" edge="1">
          <mxGeometry relative="1" as="geometry">
            <mxPoint x="565" y="1070" as="targetPoint" />
          </mxGeometry>
        </mxCell>
        <mxCell id="naLQoQvjF8YPUEuu64ZZ-25" value="" style="html=1;points=[];perimeter=orthogonalPerimeter;" parent="1" vertex="1">
          <mxGeometry x="560" y="220" width="10" height="630" as="geometry" />
        </mxCell>
        <mxCell id="naLQoQvjF8YPUEuu64ZZ-31" value="" style="html=1;points=[];perimeter=orthogonalPerimeter;" parent="1" vertex="1">
          <mxGeometry x="320" y="190" width="10" height="80" as="geometry" />
        </mxCell>
        <mxCell id="naLQoQvjF8YPUEuu64ZZ-32" style="edgeStyle=orthogonalEdgeStyle;rounded=0;orthogonalLoop=1;jettySize=auto;html=1;dashed=1;endArrow=none;endFill=0;" parent="1" source="naLQoQvjF8YPUEuu64ZZ-13" target="naLQoQvjF8YPUEuu64ZZ-31" edge="1">
          <mxGeometry relative="1" as="geometry">
            <mxPoint x="325" y="770" as="targetPoint" />
            <mxPoint x="325" y="330" as="sourcePoint" />
          </mxGeometry>
        </mxCell>
        <mxCell id="naLQoQvjF8YPUEuu64ZZ-34" value="&lt;font style=&quot;font-size: 11px&quot;&gt;Получение сообщения из очереди&lt;/font&gt;" style="html=1;verticalAlign=bottom;endArrow=block;strokeColor=#000000;entryX=0.1;entryY=0.025;entryDx=0;entryDy=0;entryPerimeter=0;exitX=1.071;exitY=0.532;exitDx=0;exitDy=0;exitPerimeter=0;" parent="1" source="naLQoQvjF8YPUEuu64ZZ-31" target="naLQoQvjF8YPUEuu64ZZ-25" edge="1">
          <mxGeometry x="-0.0434" y="9" width="80" relative="1" as="geometry">
            <mxPoint x="330" y="419" as="sourcePoint" />
            <mxPoint x="330" y="420" as="targetPoint" />
            <mxPoint as="offset" />
          </mxGeometry>
        </mxCell>
        <mxCell id="naLQoQvjF8YPUEuu64ZZ-35" value="" style="html=1;points=[];perimeter=orthogonalPerimeter;" parent="1" vertex="1">
          <mxGeometry x="570" y="270" width="10" height="40" as="geometry" />
        </mxCell>
        <mxCell id="naLQoQvjF8YPUEuu64ZZ-36" value="Сохранение запроса в БД" style="edgeStyle=orthogonalEdgeStyle;html=1;align=left;spacingLeft=2;endArrow=block;rounded=0;strokeColor=#000000;" parent="1" edge="1">
          <mxGeometry x="-0.0989" y="10" relative="1" as="geometry">
            <mxPoint x="570" y="250" as="sourcePoint" />
            <Array as="points">
              <mxPoint x="570" y="250" />
              <mxPoint x="601" y="250" />
              <mxPoint x="601" y="290" />
            </Array>
            <mxPoint x="581" y="290" as="targetPoint" />
            <mxPoint as="offset" />
          </mxGeometry>
        </mxCell>
        <mxCell id="naLQoQvjF8YPUEuu64ZZ-38" value="" style="html=1;points=[];perimeter=orthogonalPerimeter;" parent="1" vertex="1">
          <mxGeometry x="570" y="490" width="10" height="40" as="geometry" />
        </mxCell>
        <mxCell id="naLQoQvjF8YPUEuu64ZZ-48" style="edgeStyle=orthogonalEdgeStyle;rounded=0;orthogonalLoop=1;jettySize=auto;html=1;entryX=0.5;entryY=1;entryDx=0;entryDy=0;endArrow=none;endFill=0;strokeColor=#000000;dashed=1;" parent="1" source="Wha3gfl5ObDoSyTYLjjx-4" target="naLQoQvjF8YPUEuu64ZZ-24" edge="1">
          <mxGeometry relative="1" as="geometry" />
        </mxCell>
        <mxCell id="naLQoQvjF8YPUEuu64ZZ-57" style="edgeStyle=orthogonalEdgeStyle;rounded=0;orthogonalLoop=1;jettySize=auto;html=1;dashed=1;endArrow=none;endFill=0;strokeColor=#000000;" parent="1" source="naLQoQvjF8YPUEuu64ZZ-42" edge="1">
          <mxGeometry relative="1" as="geometry">
            <mxPoint x="915" y="1080" as="targetPoint" />
          </mxGeometry>
        </mxCell>
        <mxCell id="naLQoQvjF8YPUEuu64ZZ-42" value="" style="html=1;points=[];perimeter=orthogonalPerimeter;" parent="1" vertex="1">
          <mxGeometry x="910" y="600" width="10" height="100" as="geometry" />
        </mxCell>
        <mxCell id="naLQoQvjF8YPUEuu64ZZ-44" value="&lt;font style=&quot;font-size: 11px&quot;&gt;Запрос на сохранение&lt;br&gt;результатов классификации&lt;/font&gt;" style="html=1;verticalAlign=bottom;endArrow=block;strokeColor=#000000;" parent="1" edge="1">
          <mxGeometry x="-0.0028" y="10" width="80" relative="1" as="geometry">
            <mxPoint x="570" y="620" as="sourcePoint" />
            <mxPoint x="911" y="619" as="targetPoint" />
            <mxPoint as="offset" />
          </mxGeometry>
        </mxCell>
        <mxCell id="naLQoQvjF8YPUEuu64ZZ-45" value="&lt;font style=&quot;font-size: 11px&quot;&gt;Получение ответа на запрос&lt;/font&gt;" style="html=1;verticalAlign=bottom;endArrow=open;dashed=1;endSize=8;strokeColor=#000000;exitX=-0.165;exitY=0.781;exitDx=0;exitDy=0;exitPerimeter=0;" parent="1" edge="1">
          <mxGeometry relative="1" as="geometry">
            <mxPoint x="908.3499999999999" y="689.9999999999999" as="sourcePoint" />
            <mxPoint x="570" y="689.9999999999999" as="targetPoint" />
          </mxGeometry>
        </mxCell>
        <mxCell id="naLQoQvjF8YPUEuu64ZZ-46" value="&lt;font style=&quot;font-size: 11px&quot;&gt;Построение модели&lt;br&gt;классификатора на основе&lt;br&gt;оптимальных настроек&lt;/font&gt;" style="edgeStyle=orthogonalEdgeStyle;html=1;align=center;spacingLeft=2;endArrow=block;rounded=0;strokeColor=#000000;" parent="1" edge="1">
          <mxGeometry x="0.1194" y="89" relative="1" as="geometry">
            <mxPoint x="570" y="470" as="sourcePoint" />
            <Array as="points">
              <mxPoint x="570" y="470" />
              <mxPoint x="601" y="470" />
              <mxPoint x="601" y="510" />
            </Array>
            <mxPoint x="581" y="510" as="targetPoint" />
            <mxPoint as="offset" />
          </mxGeometry>
        </mxCell>
        <mxCell id="naLQoQvjF8YPUEuu64ZZ-55" style="edgeStyle=orthogonalEdgeStyle;rounded=0;orthogonalLoop=1;jettySize=auto;html=1;dashed=1;endArrow=none;endFill=0;strokeColor=#000000;" parent="1" source="naLQoQvjF8YPUEuu64ZZ-58" edge="1">
          <mxGeometry relative="1" as="geometry">
            <mxPoint x="325" y="1070" as="targetPoint" />
          </mxGeometry>
        </mxCell>
        <mxCell id="naLQoQvjF8YPUEuu64ZZ-50" value="" style="html=1;points=[];perimeter=orthogonalPerimeter;" parent="1" vertex="1">
          <mxGeometry x="320" y="770" width="10" height="80" as="geometry" />
        </mxCell>
        <mxCell id="naLQoQvjF8YPUEuu64ZZ-51" style="edgeStyle=orthogonalEdgeStyle;rounded=0;orthogonalLoop=1;jettySize=auto;html=1;dashed=1;endArrow=none;endFill=0;" parent="1" source="naLQoQvjF8YPUEuu64ZZ-31" target="naLQoQvjF8YPUEuu64ZZ-50" edge="1">
          <mxGeometry relative="1" as="geometry">
            <mxPoint x="325" y="760" as="targetPoint" />
            <mxPoint x="325" y="450" as="sourcePoint" />
          </mxGeometry>
        </mxCell>
        <mxCell id="naLQoQvjF8YPUEuu64ZZ-52" value="&lt;font style=&quot;font-size: 11px&quot;&gt;Отправка сообщения&lt;br&gt;с построенной моделью в очередь&lt;/font&gt;" style="html=1;verticalAlign=bottom;endArrow=open;dashed=1;endSize=8;strokeColor=#000000;exitX=-0.106;exitY=0.98;exitDx=0;exitDy=0;exitPerimeter=0;" parent="1" source="naLQoQvjF8YPUEuu64ZZ-25" target="naLQoQvjF8YPUEuu64ZZ-50" edge="1">
          <mxGeometry x="0.0435" y="-9" relative="1" as="geometry">
            <mxPoint x="560" y="739.5" as="sourcePoint" />
            <mxPoint x="480" y="739.5" as="targetPoint" />
            <mxPoint as="offset" />
          </mxGeometry>
        </mxCell>
        <mxCell id="naLQoQvjF8YPUEuu64ZZ-54" style="edgeStyle=orthogonalEdgeStyle;rounded=0;orthogonalLoop=1;jettySize=auto;html=1;endArrow=none;endFill=0;strokeColor=#000000;dashed=1;" parent="1" source="naLQoQvjF8YPUEuu64ZZ-53" edge="1">
          <mxGeometry relative="1" as="geometry">
            <mxPoint x="75" y="1070" as="targetPoint" />
          </mxGeometry>
        </mxCell>
        <mxCell id="naLQoQvjF8YPUEuu64ZZ-53" value="" style="html=1;points=[];perimeter=orthogonalPerimeter;" parent="1" vertex="1">
          <mxGeometry x="70" y="930" width="10" height="110" as="geometry" />
        </mxCell>
        <mxCell id="naLQoQvjF8YPUEuu64ZZ-58" value="" style="html=1;points=[];perimeter=orthogonalPerimeter;" parent="1" vertex="1">
          <mxGeometry x="320" y="900" width="10" height="80" as="geometry" />
        </mxCell>
        <mxCell id="naLQoQvjF8YPUEuu64ZZ-59" style="edgeStyle=orthogonalEdgeStyle;rounded=0;orthogonalLoop=1;jettySize=auto;html=1;dashed=1;endArrow=none;endFill=0;strokeColor=#000000;" parent="1" source="naLQoQvjF8YPUEuu64ZZ-50" target="naLQoQvjF8YPUEuu64ZZ-58" edge="1">
          <mxGeometry relative="1" as="geometry">
            <mxPoint x="325" y="1000" as="targetPoint" />
            <mxPoint x="325" y="780" as="sourcePoint" />
          </mxGeometry>
        </mxCell>
        <mxCell id="naLQoQvjF8YPUEuu64ZZ-60" value="&lt;font style=&quot;font-size: 11px&quot;&gt;Получение ответного&lt;br&gt;сообщения из очереди&lt;/font&gt;" style="html=1;verticalAlign=bottom;endArrow=open;dashed=1;endSize=8;strokeColor=#000000;" parent="1" edge="1">
          <mxGeometry x="-0.0041" relative="1" as="geometry">
            <mxPoint x="320" y="950" as="sourcePoint" />
            <mxPoint x="80" y="950" as="targetPoint" />
            <mxPoint as="offset" />
          </mxGeometry>
        </mxCell>
        <mxCell id="Wha3gfl5ObDoSyTYLjjx-1" value="" style="html=1;points=[];perimeter=orthogonalPerimeter;" parent="1" vertex="1">
          <mxGeometry x="920" y="640" width="10" height="40" as="geometry" />
        </mxCell>
        <mxCell id="Wha3gfl5ObDoSyTYLjjx-2" value="Сохранение результатов&lt;br&gt;классификации в БД" style="edgeStyle=orthogonalEdgeStyle;html=1;align=center;spacingLeft=2;endArrow=block;rounded=0;strokeColor=#000000;" parent="1" edge="1">
          <mxGeometry x="-0.1001" y="79" relative="1" as="geometry">
            <mxPoint x="920" y="630" as="sourcePoint" />
            <Array as="points">
              <mxPoint x="920" y="630" />
              <mxPoint x="951" y="630" />
              <mxPoint x="951" y="670" />
            </Array>
            <mxPoint x="931" y="670" as="targetPoint" />
            <mxPoint as="offset" />
          </mxGeometry>
        </mxCell>
        <mxCell id="Wha3gfl5ObDoSyTYLjjx-4" value="" style="html=1;points=[];perimeter=orthogonalPerimeter;" parent="1" vertex="1">
          <mxGeometry x="910" y="330" width="10" height="100" as="geometry" />
        </mxCell>
        <mxCell id="Wha3gfl5ObDoSyTYLjjx-5" style="edgeStyle=orthogonalEdgeStyle;rounded=0;orthogonalLoop=1;jettySize=auto;html=1;entryX=0.5;entryY=1;entryDx=0;entryDy=0;endArrow=none;endFill=0;strokeColor=#000000;dashed=1;" parent="1" source="naLQoQvjF8YPUEuu64ZZ-42" target="Wha3gfl5ObDoSyTYLjjx-4" edge="1">
          <mxGeometry relative="1" as="geometry">
            <mxPoint x="915" y="600" as="sourcePoint" />
            <mxPoint x="915" y="20" as="targetPoint" />
          </mxGeometry>
        </mxCell>
        <mxCell id="Wha3gfl5ObDoSyTYLjjx-7" value="Отправка запроса на нахождение&lt;br&gt;оптимальных настроек классификатора" style="html=1;verticalAlign=bottom;endArrow=block;entryX=0.071;entryY=0.108;entryDx=0;entryDy=0;entryPerimeter=0;" parent="1" target="Wha3gfl5ObDoSyTYLjjx-4" edge="1">
          <mxGeometry width="80" relative="1" as="geometry">
            <mxPoint x="570" y="342" as="sourcePoint" />
            <mxPoint x="650" y="340" as="targetPoint" />
          </mxGeometry>
        </mxCell>
        <mxCell id="Wha3gfl5ObDoSyTYLjjx-8" value="Получение ответа&lt;br&gt;с оптимальными настройками" style="html=1;verticalAlign=bottom;endArrow=open;dashed=1;endSize=8;exitX=-0.282;exitY=0.884;exitDx=0;exitDy=0;exitPerimeter=0;" parent="1" source="Wha3gfl5ObDoSyTYLjjx-4" edge="1">
          <mxGeometry relative="1" as="geometry">
            <mxPoint x="910" y="390" as="sourcePoint" />
            <mxPoint x="572" y="420" as="targetPoint" />
            <mxPoint x="1" as="offset" />
          </mxGeometry>
        </mxCell>
        <mxCell id="Wha3gfl5ObDoSyTYLjjx-10" value="" style="html=1;points=[];perimeter=orthogonalPerimeter;" parent="1" vertex="1">
          <mxGeometry x="920" y="360" width="10" height="40" as="geometry" />
        </mxCell>
        <mxCell id="Wha3gfl5ObDoSyTYLjjx-11" value="Поиск оптимальных настроек&lt;br&gt;в базе знаний на основе&lt;br&gt;обучающей выборки" style="edgeStyle=orthogonalEdgeStyle;html=1;align=center;spacingLeft=2;endArrow=block;rounded=0;strokeColor=#000000;" parent="1" edge="1">
          <mxGeometry x="-0.1001" y="89" relative="1" as="geometry">
            <mxPoint x="920" y="350" as="sourcePoint" />
            <Array as="points">
              <mxPoint x="920" y="350" />
              <mxPoint x="951" y="350" />
              <mxPoint x="951" y="390" />
            </Array>
            <mxPoint x="931" y="390" as="targetPoint" />
            <mxPoint as="offset" />
          </mxGeometry>
        </mxCell>
        <mxCell id="6Ud4_OEiUZgffUP0prp0-2" value="&lt;b&gt;Eca ers&lt;/b&gt;" style="html=1;strokeWidth=2;" vertex="1" parent="1">
          <mxGeometry x="860" y="-30" width="110" height="50" as="geometry" />
        </mxCell>
        <mxCell id="6Ud4_OEiUZgffUP0prp0-4" style="edgeStyle=orthogonalEdgeStyle;rounded=0;orthogonalLoop=1;jettySize=auto;html=1;startArrow=none;startFill=0;dashed=1;endArrow=none;endFill=0;" edge="1" parent="1" source="6Ud4_OEiUZgffUP0prp0-3">
          <mxGeometry relative="1" as="geometry">
            <mxPoint x="1215" y="1070" as="targetPoint" />
          </mxGeometry>
        </mxCell>
        <mxCell id="6Ud4_OEiUZgffUP0prp0-3" value="&lt;b&gt;S3 storage (minio)&lt;/b&gt;" style="html=1;strokeWidth=2;" vertex="1" parent="1">
          <mxGeometry x="1160" y="-30" width="110" height="50" as="geometry" />
        </mxCell>
        <mxCell id="6Ud4_OEiUZgffUP0prp0-5" value="Запрос на сохранение модели классификатора в S3" style="html=1;verticalAlign=bottom;endArrow=block;strokeColor=#000000;" edge="1" parent="1">
          <mxGeometry x="-0.0028" y="10" width="80" relative="1" as="geometry">
            <mxPoint x="570" y="741" as="sourcePoint" />
            <mxPoint x="1220" y="740" as="targetPoint" />
            <mxPoint as="offset" />
          </mxGeometry>
        </mxCell>
        <mxCell id="6Ud4_OEiUZgffUP0prp0-6" value="&lt;font style=&quot;font-size: 11px&quot;&gt;Получение ответа на запрос&lt;/font&gt;" style="html=1;verticalAlign=bottom;endArrow=open;dashed=1;endSize=8;strokeColor=#000000;" edge="1" parent="1">
          <mxGeometry relative="1" as="geometry">
            <mxPoint x="1210" y="760" as="sourcePoint" />
            <mxPoint x="571.65" y="759.9999999999999" as="targetPoint" />
          </mxGeometry>
        </mxCell>
        <mxCell id="6Ud4_OEiUZgffUP0prp0-7" value="Запрос на формирование ссылки (presignedUrl) для скачивания модели классификатора из S3" style="html=1;verticalAlign=bottom;endArrow=block;strokeColor=#000000;" edge="1" parent="1">
          <mxGeometry x="-0.0028" y="10" width="80" relative="1" as="geometry">
            <mxPoint x="570" y="801" as="sourcePoint" />
            <mxPoint x="1220" y="800" as="targetPoint" />
            <mxPoint as="offset" />
          </mxGeometry>
        </mxCell>
        <mxCell id="6Ud4_OEiUZgffUP0prp0-8" value="&lt;font style=&quot;font-size: 11px&quot;&gt;Получение ответа на запрос&lt;/font&gt;" style="html=1;verticalAlign=bottom;endArrow=open;dashed=1;endSize=8;strokeColor=#000000;" edge="1" parent="1">
          <mxGeometry relative="1" as="geometry">
            <mxPoint x="1208.35" y="820" as="sourcePoint" />
            <mxPoint x="570" y="819.9999999999999" as="targetPoint" />
          </mxGeometry>
        </mxCell>
        <mxCell id="6Ud4_OEiUZgffUP0prp0-9" value="&lt;font style=&quot;font-size: 11px&quot;&gt;Скачивание модели классификатора по ссылке из S3&lt;br&gt;&lt;/font&gt;" style="html=1;verticalAlign=bottom;endArrow=block;strokeColor=#000000;" edge="1" parent="1">
          <mxGeometry x="-0.0172" y="10" width="80" relative="1" as="geometry">
            <mxPoint x="80" y="1000" as="sourcePoint" />
            <mxPoint x="1210" y="1000" as="targetPoint" />
            <mxPoint x="-1" as="offset" />
          </mxGeometry>
        </mxCell>
        <mxCell id="6Ud4_OEiUZgffUP0prp0-10" value="&lt;font style=&quot;font-size: 11px&quot;&gt;Получение ответа на запрос&lt;/font&gt;" style="html=1;verticalAlign=bottom;endArrow=open;dashed=1;endSize=8;strokeColor=#000000;entryX=1.294;entryY=0.786;entryDx=0;entryDy=0;entryPerimeter=0;" edge="1" parent="1">
          <mxGeometry relative="1" as="geometry">
            <mxPoint x="1210" y="1020" as="sourcePoint" />
            <mxPoint x="80" y="1020" as="targetPoint" />
          </mxGeometry>
        </mxCell>
      </root>
    </mxGraphModel>
  </diagram>
</mxfile>
